<svg width="200" height="272" viewBox="0 0 200 272" fill="none" xmlns="http://www.w3.org/2000/svg">
<path d="M73 45.8C60.24 55.58 68.82 72.86 55.4 82.2C46.46 88.42 36.86 84.78 31.28 93.06C28.12 97.76 28.32 103.08 28.6 106.16C31.4 136.2 58.04 174.6 95.12 165.4C132.2 156.2 115.32 131.8 141.06 122.9C151.64 119.24 163.02 116.26 166.92 97.86C169.32 86.54 165.72 69.7 155.5 65.64C146.02 61.88 139.96 71.96 129.14 68.34C118.28 64.7 120.26 52.76 108.2 45.4C98.26 39.34 82.38 38.6 73 45.8Z" fill="#FF6682"/>
<path d="M141.4 136.74C137.36 141.46 135.86 146.9 137.8 150.72C138.2 151.52 138.86 152.64 140.02 153.04C145.36 154.88 154.64 139.94 151.04 136.32C149.82 135.1 147.88 134.08 145.98 134.24C143.36 134.44 141.76 136.3 141.4 136.74Z" fill="#FFB0B0"/>
<path opacity="0.79" d="M54.36 126.04C65.726 126.04 74.94 117.139 74.94 106.16C74.94 95.1806 65.726 86.28 54.36 86.28C42.994 86.28 33.78 95.1806 33.78 106.16C33.78 117.139 42.994 126.04 54.36 126.04Z" fill="url(#paint0_radial_15_346)"/>
<path d="M126.62 92.94C126.62 92.94 129.66 92.2 135.46 86.4C141.26 80.6 151.02 75.5 154.6 87.14C156.72 94.02 155.22 109.6 148.28 111.24C143.62 112.36 138.7 108.62 135.6 105.52C132.5 102.42 126.6 100.88 126.6 100.88V92.94H126.62Z" fill="#00B763"/>
<path d="M126.62 92.9399V100.9C126.62 100.9 132.52 102.44 135.62 105.54C136.56 106.48 137.68 107.5 138.9 108.4C139.76 107.36 141.44 105.1 142.02 103.44C144.66 95.6399 143.18 86.7399 136.46 85.4399C136.12 85.7599 135.78 86.0799 135.46 86.3999C129.66 92.1999 126.62 92.9399 126.62 92.9399Z" fill="#07AD5A"/>
<path opacity="0.8" d="M129.54 94.18C129.54 94.18 139.44 91.4 146.04 84.8" stroke="#442753" stroke-width="2" stroke-miterlimit="10" stroke-linecap="round" stroke-linejoin="round"/>
<path opacity="0.8" d="M129.82 96.3C129.82 96.3 144.26 94.4 149.72 92.02" stroke="#442753" stroke-width="3" stroke-miterlimit="10" stroke-linecap="round" stroke-linejoin="round"/>
<path opacity="0.8" d="M129.88 100.3C129.88 100.3 137.96 102.28 146.04 107.06" stroke="#442753" stroke-width="2" stroke-miterlimit="10" stroke-linecap="round" stroke-linejoin="round"/>
<path opacity="0.8" d="M129.88 98.7C129.88 98.7 143.92 99.94 149.72 99.94" stroke="#442753" stroke-width="2" stroke-miterlimit="10" stroke-linecap="round" stroke-linejoin="round"/>
<path d="M97.42 72.4401C97.42 72.4401 98.36 68.6401 99.92 67.1401C101.48 65.6401 104.06 65.2001 109.48 66.2001C114.88 67.2001 118.82 69.0401 118.82 71.1401C118.82 72.1401 114.9 75.5201 113.94 75.5201C112.98 75.5201 100.14 72.0801 97.42 72.4401Z" fill="#00B763"/>
<path d="M106.44 69C101.8 69 99.74 71.06 98.96 72.48C103.32 72.92 113.12 75.52 113.94 75.52C114.66 75.52 117.1 73.56 118.22 72.2C116.38 69.98 111.04 69 106.44 69Z" fill="#07AD5A"/>
<path opacity="0.8" d="M102.06 71.4C102.06 71.4 103.08 69 105.1 68" stroke="#442753" stroke-width="2" stroke-miterlimit="10" stroke-linecap="round" stroke-linejoin="round"/>
<path opacity="0.8" d="M109.78 69C107.48 69.7 105.68 72.2 105.68 72.2" stroke="#442753" stroke-width="2" stroke-miterlimit="10" stroke-linecap="round" stroke-linejoin="round"/>
<path opacity="0.8" d="M109.78 72.74C109.78 72.74 111.58 70.58 114.58 70.58" stroke="#442753" stroke-width="2" stroke-miterlimit="10" stroke-linecap="round" stroke-linejoin="round"/>
<path d="M126.62 92.94C126.62 92.94 129.66 92.2 135.46 86.4C141.26 80.6 151.02 75.5 154.6 87.14C156.72 94.02 155.22 109.6 148.28 111.24C143.62 112.36 138.7 108.62 135.6 105.52C132.5 102.42 126.6 100.88 126.6 100.88V92.94H126.62Z" stroke="#0F7C46" stroke-miterlimit="10" stroke-linecap="round" stroke-linejoin="round"/>
<path d="M92.2 124.04C92.2 124.04 97.1 130.34 99.6 132.84C102.1 135.34 121.6 130.64 123.8 128.44C126 126.24 126.6 121.24 115 118.44C115.02 118.44 104.52 127.2 92.2 124.04Z" fill="#00B763"/>
<path d="M97.38 130.4C104.88 130.1 118.68 128.94 124.9 124.44C124.24 122.34 121.58 120.04 115 118.46C115 118.46 105.16 126.66 93.36 124.32C93.16 124.5 92.98 124.66 92.82 124.84C93.76 126.02 95.66 128.4 97.38 130.4Z" fill="#07AD5A"/>
<path opacity="0.8" d="M100.28 127.24C100.28 127.24 102.88 129.22 103.86 131.22" stroke="#442753" stroke-width="2" stroke-miterlimit="10" stroke-linecap="round" stroke-linejoin="round"/>
<path opacity="0.8" d="M105.1 127C105.1 127 107.3 128.7 108.22 130.48" stroke="#442753" stroke-width="2" stroke-miterlimit="10" stroke-linecap="round" stroke-linejoin="round"/>
<path opacity="0.8" d="M108.64 125.74C108.64 125.74 111.1 126.86 112.54 129.22" stroke="#442753" stroke-width="2" stroke-miterlimit="10" stroke-linecap="round" stroke-linejoin="round"/>
<path opacity="0.8" d="M111.68 124.7C111.68 124.7 116.1 125.96 117 127.74" stroke="#442753" stroke-width="2" stroke-miterlimit="10" stroke-linecap="round" stroke-linejoin="round"/>
<path opacity="0.8" d="M115.32 122.9C115.32 122.9 120.02 123.98 120.94 125.76" stroke="#442753" stroke-width="2" stroke-miterlimit="10" stroke-linecap="round" stroke-linejoin="round"/>
<path d="M48.82 103.44C48.82 103.44 50.02 108.86 54.34 108.44C57.56 108.14 58.34 101.36 53.52 98.7799C48.68 96.2199 48.82 103.44 48.82 103.44Z" fill="#F4E834"/>
<path d="M48.82 103.44C48.82 103.44 50.02 108.86 54.34 108.44C57.56 108.14 58.34 101.36 53.52 98.7799C48.68 96.2199 48.82 103.44 48.82 103.44Z" fill="#F4E834"/>
<path d="M52.58 105.08C53.7066 105.08 54.62 104.167 54.62 103.04C54.62 101.913 53.7066 101 52.58 101C51.4532 101 50.54 101.913 50.54 103.04C50.54 104.167 51.4532 105.08 52.58 105.08Z" fill="#F4E834"/>
<path opacity="0.66" d="M52.58 104.84C53.574 104.84 54.38 104.034 54.38 103.04C54.38 102.046 53.574 101.24 52.58 101.24C51.5858 101.24 50.78 102.046 50.78 103.04C50.78 104.034 51.5858 104.84 52.58 104.84Z" fill="#F99338"/>
<path d="M129.66 94.86C127.4 79.62 112.14 69.24 95.6 71.7C92.5 72.16 89.58 73.04 86.9 74.24C83.76 75.66 80.04 74.86 77.78 72.26C76.78 71.1 75.84 70.08 75.34 69.64C73.92 68.4 72.28 67.14 70.4 66.04C69.46 65.48 68.46 64.96 67.4 64.5C66.34 64.04 65.22 63.62 64.06 63.3C63.76 63.22 63.48 63.14 63.18 63.06C62.88 63 62.58 62.92 62.28 62.86C61.98 62.8 61.66 62.76 61.36 62.7C61.06 62.64 60.74 62.62 60.42 62.58C59.16 62.44 57.88 62.42 56.58 62.56C55.28 62.68 53.98 62.96 52.72 63.42L52.48 63.5L52.36 63.54L52.3 63.56C52.14 63.62 52.24 63.58 52.2 63.6L52.18 63.62L51.78 63.8L51.38 63.98L51.18 64.08C51.12 64.12 51.02 64.16 50.96 64.2C50.64 64.36 50.34 64.54 50.04 64.7C49.74 64.88 49.48 65.06 49.2 65.24C48.12 66 47.12 66.86 46.26 67.8C45.4 68.76 44.62 69.78 43.96 70.82C43.3 71.88 42.72 72.98 42.24 74.12L42.16 74.34L42.08 74.56L41.92 74.96C41.88 75.08 41.82 75.24 41.76 75.4L41.62 75.84C41.52 76.14 41.46 76.42 41.36 76.72C41.28 77.02 41.22 77.3 41.14 77.6C40.62 79.94 40.54 82.24 40.74 84.4C40.96 86.54 41.44 88.54 42.06 90.28C42.68 92.04 43.44 93.56 44.2 94.86C44.96 96.16 45.72 97.22 46.38 98.06C46.7 98.48 47.02 98.84 47.28 99.16C47.42 99.32 47.54 99.46 47.66 99.58C47.14 101 46.46 103.8 48.24 105.56C49.88 107.2 50.4 101.02 53.94 100.46C55.06 100.28 55.34 98.8 54.2 97.66C53.24 96.7 50.96 96.54 48.94 97.96C48.92 97.92 48.88 97.9 48.86 97.86C48.62 97.56 48.34 97.2 48.06 96.8C47.48 96 46.8 94.98 46.14 93.76C45.48 92.54 44.84 91.12 44.34 89.5C43.82 87.88 43.46 86.08 43.34 84.18C43.22 82.26 43.38 80.24 43.9 78.24C43.98 78 44.04 77.74 44.12 77.5C44.2 77.26 44.28 77 44.36 76.76L44.5 76.4C44.54 76.28 44.58 76.16 44.64 76.04L44.8 75.64L44.88 75.48L44.96 75.3C45.4 74.34 45.94 73.4 46.54 72.5C47.14 71.6 47.84 70.76 48.58 70C49.34 69.24 50.16 68.56 51.04 68C51.26 67.86 51.48 67.72 51.7 67.6C51.92 67.5 52.12 67.38 52.34 67.28C52.4 67.26 52.44 67.22 52.5 67.2L52.7 67.12L53.12 66.96L53.52 66.8L53.56 66.78L53.66 66.76L53.84 66.7C54.82 66.38 55.84 66.2 56.86 66.14C57.88 66.08 58.92 66.12 59.94 66.28C60.2 66.32 60.44 66.36 60.7 66.4C60.96 66.46 61.2 66.5 61.46 66.56C61.7 66.62 61.96 66.68 62.2 66.76C62.44 66.82 62.68 66.9 62.92 66.98C63.88 67.3 64.82 67.68 65.7 68.1C66.58 68.54 67.42 69 68.22 69.52C69.82 70.54 71.2 71.68 72.42 72.82C72.8 73.16 73.46 73.96 74.22 74.9C76.42 77.64 76.54 81.48 74.5 84.34C70.54 89.9 68.64 96.74 69.68 103.76C71.94 119 87.2 129.38 103.74 126.92C120.28 124.46 131.92 110.12 129.66 94.86Z" fill="#00F0B5"/>
<path d="M76.14 116.72C76.14 116.72 76.32 117.52 79.36 116.38C82.4 115.24 84.94 111.46 84.94 111.46L77.82 114.14L74.08 114.8L76.14 116.72Z" fill="#12CC9B"/>
<path d="M75.48 70.58C75.48 70.58 77.96 75.7201 82.14 76.7201C86.28 77.7201 88.6 74.3801 92.22 72.7201C89.08 73.3401 85.3 75.1201 85.3 75.1201C85.3 75.1201 80.46 75.76 77.28 72.18C74.1 68.62 75.48 70.58 75.48 70.58Z" fill="#12CC9B"/>
<g opacity="0.76">
<path opacity="0.76" d="M129.66 94.86C127.8 82.4 117.26 73.2 104.42 71.6C113.02 75.4 124.36 77.9 124.46 94.18C124.6 114.22 110.36 124.72 95.1 125.74C92.06 125.94 88.96 124.94 86.1 124.6C91.38 126.94 97.46 127.84 103.76 126.92C120.32 124.46 131.92 110.12 129.66 94.86Z" fill="#12CC9B"/>
</g>
<path d="M91.42 103.44C94.7338 103.44 97.42 100.619 97.42 97.14C97.42 93.6606 94.7338 90.84 91.42 90.84C88.1064 90.84 85.42 93.6606 85.42 97.14C85.42 100.619 88.1064 103.44 91.42 103.44Z" fill="#442753"/>
<path d="M89.82 98.1399C91.1896 98.1399 92.3 96.9759 92.3 95.5399C92.3 94.1039 91.1896 92.9399 89.82 92.9399C88.4502 92.9399 87.34 94.1039 87.34 95.5399C87.34 96.9759 88.4502 98.1399 89.82 98.1399Z" fill="white"/>
<path d="M93.66 100.9C94.4664 100.9 95.12 100.219 95.12 99.38C95.12 98.5406 94.4664 97.86 93.66 97.86C92.8536 97.86 92.2 98.5406 92.2 99.38C92.2 100.219 92.8536 100.9 93.66 100.9Z" fill="white"/>
<path d="M110.68 98.48C110.58 98.24 110.02 97 108.7 96.3C106.42 95.08 103.74 96.42 102.38 97.08C101.42 97.56 100.26 98.12 100.2 98.98C100.14 99.9 101.3 100.32 101.4 101.2C101.3 102.1 100.14 102.52 100.2 103.44C100.26 104.3 101.42 104.88 102.38 105.34C103.72 106 106.42 107.34 108.7 106.12C110.02 105.42 110.58 104.18 110.68 103.94C110.84 103.56 111.1 102.38 111.1 101.2C111.1 100.02 110.84 98.86 110.68 98.48Z" fill="#00B763"/>
<path opacity="0.8" d="M102.7 99.72C102.7 99.72 106.2 98.86 108.42 98.86" stroke="#442753" stroke-miterlimit="10" stroke-linecap="round" stroke-linejoin="round"/>
<path opacity="0.8" d="M102.7 101.54C102.7 101.54 106.12 101.06 107.62 101.76" stroke="#442753" stroke-miterlimit="10" stroke-linecap="round" stroke-linejoin="round"/>
<path d="M80.18 113.36C78.94 113.84 77.68 114.22 76.44 114.48C74 112.1 72.56 108.5 72.82 104.56C73 102.02 73.84 99.72 75.16 97.86C75 98.62 74.88 99.42 74.84 100.22C74.46 105.42 76.6 110.22 80.18 113.36Z" fill="white"/>
<path d="M83.84 111.6C83.18 111.98 82.5 112.34 81.8 112.66C81.64 112.74 81.46 112.82 81.3 112.88C80.1 111.2 79.36 109.06 79.36 106.72C79.36 104.66 79.92 102.76 80.88 101.2C80.8 101.82 80.74 102.46 80.74 103.12C80.74 106.38 81.92 109.36 83.84 111.6Z" fill="white"/>
<path opacity="0.3" d="M96.6 107.6C96.6 107.6 96.6 111.82 92.7 114.22" stroke="#212121" stroke-width="6" stroke-miterlimit="10" stroke-linecap="round" stroke-linejoin="round"/>
<path opacity="0.3" d="M99.94 109.26C99.94 109.26 101.46 112.3 99.84 115.64" stroke="#212121" stroke-width="6" stroke-miterlimit="10" stroke-linecap="round" stroke-linejoin="round"/>
<path d="M86.16 110.1C84.84 111.08 83.38 111.96 81.8 112.68C79.42 113.78 76.98 114.48 74.58 114.8" stroke="#0A8E6B" stroke-width="6" stroke-miterlimit="10" stroke-linecap="round" stroke-linejoin="round"/>
<path opacity="0.8" d="M102.7 103.12C102.7 103.12 105.38 103.38 105.94 103.94" stroke="#442753" stroke-miterlimit="10" stroke-linecap="round" stroke-linejoin="round"/>
<path d="M132.6 48.2C132.6 48.2 131.08 53.8 136.84 53.8C142.6 53.8 139 45.8 132.6 48.2Z" fill="#F99338"/>
<path d="M17.96 223.333L12.412 213.263H10.854V223.333H4.356V196.657H15.262C17.3647 196.657 19.1507 197.025 20.62 197.759C22.1147 198.494 23.2293 199.507 23.964 200.799C24.6987 202.066 25.066 203.485 25.066 205.055C25.066 206.829 24.5593 208.412 23.546 209.805C22.558 211.199 21.0887 212.187 19.138 212.769L25.294 223.333H17.96ZM10.854 208.665H14.882C16.0727 208.665 16.9593 208.374 17.542 207.791C18.15 207.209 18.454 206.385 18.454 205.321C18.454 204.308 18.15 203.51 17.542 202.927C16.9593 202.345 16.0727 202.053 14.882 202.053H10.854V208.665ZM32.4131 199.925C31.2731 199.925 30.3357 199.596 29.6011 198.937C28.8917 198.253 28.5371 197.417 28.5371 196.429C28.5371 195.416 28.8917 194.58 29.6011 193.921C30.3357 193.237 31.2731 192.895 32.4131 192.895C33.5277 192.895 34.4397 193.237 35.1491 193.921C35.8837 194.58 36.2511 195.416 36.2511 196.429C36.2511 197.417 35.8837 198.253 35.1491 198.937C34.4397 199.596 33.5277 199.925 32.4131 199.925ZM35.6431 202.129V223.333H29.1451V202.129H35.6431ZM53.2721 201.901C55.7548 201.901 57.7308 202.712 59.2001 204.333C60.6948 205.929 61.4421 208.133 61.4421 210.945V223.333H54.9821V211.819C54.9821 210.401 54.6148 209.299 53.8801 208.513C53.1454 207.728 52.1574 207.335 50.9161 207.335C49.6748 207.335 48.6868 207.728 47.9521 208.513C47.2174 209.299 46.8501 210.401 46.8501 211.819V223.333H40.3521V202.129H46.8501V204.941C47.5088 204.004 48.3954 203.269 49.5101 202.737C50.6248 202.18 51.8788 201.901 53.2721 201.901ZM74.0136 201.825C75.5082 201.825 76.8129 202.129 77.9276 202.737C79.0676 203.345 79.9416 204.143 80.5496 205.131V202.129H87.0476V223.295C87.0476 225.246 86.6549 227.007 85.8696 228.577C85.1096 230.173 83.9316 231.44 82.3356 232.377C80.7649 233.315 78.8016 233.783 76.4456 233.783C73.3042 233.783 70.7582 233.036 68.8076 231.541C66.8569 230.072 65.7422 228.071 65.4636 225.537H71.8856C72.0882 226.348 72.5696 226.981 73.3296 227.437C74.0896 227.919 75.0269 228.159 76.1416 228.159C77.4842 228.159 78.5482 227.767 79.3336 226.981C80.1442 226.221 80.5496 224.993 80.5496 223.295V220.293C79.9162 221.281 79.0422 222.092 77.9276 222.725C76.8129 223.333 75.5082 223.637 74.0136 223.637C72.2656 223.637 70.6822 223.194 69.2636 222.307C67.8449 221.395 66.7176 220.116 65.8816 218.469C65.0709 216.797 64.6656 214.872 64.6656 212.693C64.6656 210.515 65.0709 208.602 65.8816 206.955C66.7176 205.309 67.8449 204.042 69.2636 203.155C70.6822 202.269 72.2656 201.825 74.0136 201.825ZM80.5496 212.731C80.5496 211.11 80.0936 209.831 79.1816 208.893C78.2949 207.956 77.2056 207.487 75.9136 207.487C74.6216 207.487 73.5196 207.956 72.6076 208.893C71.7209 209.805 71.2776 211.072 71.2776 212.693C71.2776 214.315 71.7209 215.607 72.6076 216.569C73.5196 217.507 74.6216 217.975 75.9136 217.975C77.2056 217.975 78.2949 217.507 79.1816 216.569C80.0936 215.632 80.5496 214.353 80.5496 212.731ZM113.405 223.333L107.857 213.263H106.299V223.333H99.8013V196.657H110.707C112.81 196.657 114.596 197.025 116.065 197.759C117.56 198.494 118.675 199.507 119.409 200.799C120.144 202.066 120.511 203.485 120.511 205.055C120.511 206.829 120.005 208.412 118.991 209.805C118.003 211.199 116.534 212.187 114.583 212.769L120.739 223.333H113.405ZM106.299 208.665H110.327C111.518 208.665 112.405 208.374 112.987 207.791C113.595 207.209 113.899 206.385 113.899 205.321C113.899 204.308 113.595 203.51 112.987 202.927C112.405 202.345 111.518 202.053 110.327 202.053H106.299V208.665ZM144.578 212.389C144.578 212.997 144.54 213.631 144.464 214.289H129.758C129.86 215.607 130.278 216.62 131.012 217.329C131.772 218.013 132.697 218.355 133.786 218.355C135.408 218.355 136.535 217.671 137.168 216.303H144.084C143.73 217.697 143.084 218.951 142.146 220.065C141.234 221.18 140.082 222.054 138.688 222.687C137.295 223.321 135.737 223.637 134.014 223.637C131.937 223.637 130.088 223.194 128.466 222.307C126.845 221.421 125.578 220.154 124.666 218.507C123.754 216.861 123.298 214.935 123.298 212.731C123.298 210.527 123.742 208.602 124.628 206.955C125.54 205.309 126.807 204.042 128.428 203.155C130.05 202.269 131.912 201.825 134.014 201.825C136.066 201.825 137.89 202.256 139.486 203.117C141.082 203.979 142.324 205.207 143.21 206.803C144.122 208.399 144.578 210.261 144.578 212.389ZM137.928 210.679C137.928 209.565 137.548 208.678 136.788 208.019C136.028 207.361 135.078 207.031 133.938 207.031C132.849 207.031 131.924 207.348 131.164 207.981C130.43 208.615 129.974 209.514 129.796 210.679H137.928ZM146.714 212.693C146.714 210.515 147.12 208.602 147.93 206.955C148.766 205.309 149.894 204.042 151.312 203.155C152.731 202.269 154.314 201.825 156.062 201.825C157.557 201.825 158.862 202.129 159.976 202.737C161.116 203.345 161.99 204.143 162.598 205.131V202.129H169.096V223.333H162.598V220.331C161.965 221.319 161.078 222.117 159.938 222.725C158.824 223.333 157.519 223.637 156.024 223.637C154.302 223.637 152.731 223.194 151.312 222.307C149.894 221.395 148.766 220.116 147.93 218.469C147.12 216.797 146.714 214.872 146.714 212.693ZM162.598 212.731C162.598 211.11 162.142 209.831 161.23 208.893C160.344 207.956 159.254 207.487 157.962 207.487C156.67 207.487 155.568 207.956 154.656 208.893C153.77 209.805 153.326 211.072 153.326 212.693C153.326 214.315 153.77 215.607 154.656 216.569C155.568 217.507 156.67 217.975 157.962 217.975C159.254 217.975 160.344 217.507 161.23 216.569C162.142 215.632 162.598 214.353 162.598 212.731ZM172.505 212.693C172.505 210.515 172.911 208.602 173.721 206.955C174.557 205.309 175.685 204.042 177.103 203.155C178.522 202.269 180.105 201.825 181.853 201.825C183.247 201.825 184.513 202.117 185.653 202.699C186.819 203.282 187.731 204.067 188.389 205.055V195.213H194.887V223.333H188.389V220.293C187.781 221.307 186.907 222.117 185.767 222.725C184.653 223.333 183.348 223.637 181.853 223.637C180.105 223.637 178.522 223.194 177.103 222.307C175.685 221.395 174.557 220.116 173.721 218.469C172.911 216.797 172.505 214.872 172.505 212.693ZM188.389 212.731C188.389 211.11 187.933 209.831 187.021 208.893C186.135 207.956 185.045 207.487 183.753 207.487C182.461 207.487 181.359 207.956 180.447 208.893C179.561 209.805 179.117 211.072 179.117 212.693C179.117 214.315 179.561 215.607 180.447 216.569C181.359 217.507 182.461 217.975 183.753 217.975C185.045 217.975 186.135 217.507 187.021 216.569C187.933 215.632 188.389 214.353 188.389 212.731Z" fill="black"/>
<defs>
<radialGradient id="paint0_radial_15_346" cx="0" cy="0" r="1" gradientUnits="userSpaceOnUse" gradientTransform="translate(54.3634 106.167) scale(14.2774)">
<stop stop-color="#FFFF00"/>
<stop offset="1" stop-color="#FFFF00" stop-opacity="0"/>
</radialGradient>
</defs>
</svg>
