<svg width="201" height="201" viewBox="0 0 201 201" fill="none" xmlns="http://www.w3.org/2000/svg">
<path d="M73.807 46.3965C61.047 56.1765 69.627 73.4565 56.207 82.7965C47.267 89.0165 37.667 85.3765 32.087 93.6565C28.927 98.3565 29.127 103.676 29.407 106.756C32.207 136.796 58.8471 175.196 95.9271 165.996C133.007 156.796 116.127 132.396 141.867 123.496C152.447 119.836 163.827 116.856 167.727 98.4565C170.127 87.1365 166.527 70.2965 156.307 66.2365C146.827 62.4765 140.767 72.5565 129.947 68.9365C119.087 65.2965 121.067 53.3565 109.007 45.9965C99.0671 39.9365 83.187 39.1965 73.807 46.3965Z" fill="#EA838F"/>
<path d="M142.207 137.336C138.167 142.056 136.667 147.496 138.607 151.316C139.007 152.116 139.667 153.236 140.827 153.636C146.167 155.476 155.447 140.536 151.847 136.916C150.627 135.696 148.687 134.676 146.787 134.836C144.167 135.036 142.567 136.896 142.207 137.336Z" fill="#83EAE0"/>
<path opacity="0.79" d="M55.1671 126.636C66.5331 126.636 75.7471 117.736 75.7471 106.756C75.7471 95.7771 66.5331 86.8765 55.1671 86.8765C43.801 86.8765 34.5871 95.7771 34.5871 106.756C34.5871 117.736 43.801 126.636 55.1671 126.636Z" fill="url(#paint0_radial_14_293)"/>
<path d="M127.427 93.5365C127.427 93.5365 130.467 92.7965 136.267 86.9965C142.067 81.1965 151.827 76.0965 155.407 87.7365C157.527 94.6165 156.027 110.196 149.087 111.836C144.427 112.956 139.507 109.216 136.407 106.116C133.307 103.016 127.407 101.476 127.407 101.476V93.5365H127.427Z" fill="#00B763"/>
<path d="M127.427 93.5364V101.496C127.427 101.496 133.327 103.036 136.427 106.136C137.367 107.076 138.487 108.096 139.707 108.996C140.567 107.956 142.247 105.696 142.827 104.036C145.467 96.2364 143.987 87.3364 137.267 86.0364C136.927 86.3564 136.587 86.6764 136.267 86.9964C130.467 92.7964 127.427 93.5364 127.427 93.5364Z" fill="#07AD5A"/>
<path opacity="0.8" d="M130.347 94.7765C130.347 94.7765 140.247 91.9965 146.847 85.3965" stroke="#442753" stroke-width="2" stroke-miterlimit="10" stroke-linecap="round" stroke-linejoin="round"/>
<path opacity="0.8" d="M130.627 96.8965C130.627 96.8965 145.067 94.9965 150.527 92.6165" stroke="#442753" stroke-width="3" stroke-miterlimit="10" stroke-linecap="round" stroke-linejoin="round"/>
<path opacity="0.8" d="M130.687 100.896C130.687 100.896 138.767 102.876 146.847 107.656" stroke="#442753" stroke-width="2" stroke-miterlimit="10" stroke-linecap="round" stroke-linejoin="round"/>
<path opacity="0.8" d="M130.687 99.2964C130.687 99.2964 144.727 100.536 150.527 100.536" stroke="#442753" stroke-width="2" stroke-miterlimit="10" stroke-linecap="round" stroke-linejoin="round"/>
<path d="M98.2271 73.0365C98.2271 73.0365 99.1671 69.2365 100.727 67.7365C102.287 66.2365 104.867 65.7965 110.287 66.7965C115.687 67.7965 119.627 69.6365 119.627 71.7365C119.627 72.7365 115.707 76.1165 114.747 76.1165C113.787 76.1165 100.947 72.6765 98.2271 73.0365Z" fill="#00B763"/>
<path d="M107.247 69.5964C102.607 69.5964 100.547 71.6564 99.7671 73.0764C104.127 73.5164 113.927 76.1164 114.747 76.1164C115.467 76.1164 117.907 74.1564 119.027 72.7964C117.187 70.5764 111.847 69.5964 107.247 69.5964Z" fill="#07AD5A"/>
<path opacity="0.8" d="M102.867 71.9964C102.867 71.9964 103.887 69.5964 105.907 68.5964" stroke="#442753" stroke-width="2" stroke-miterlimit="10" stroke-linecap="round" stroke-linejoin="round"/>
<path opacity="0.8" d="M110.587 69.5964C108.287 70.2964 106.487 72.7964 106.487 72.7964" stroke="#442753" stroke-width="2" stroke-miterlimit="10" stroke-linecap="round" stroke-linejoin="round"/>
<path opacity="0.8" d="M110.587 73.3364C110.587 73.3364 112.387 71.1764 115.387 71.1764" stroke="#442753" stroke-width="2" stroke-miterlimit="10" stroke-linecap="round" stroke-linejoin="round"/>
<path d="M127.427 93.5365C127.427 93.5365 130.467 92.7965 136.267 86.9965C142.067 81.1965 151.827 76.0965 155.407 87.7365C157.527 94.6165 156.027 110.196 149.087 111.836C144.427 112.956 139.507 109.216 136.407 106.116C133.307 103.016 127.407 101.476 127.407 101.476V93.5365H127.427Z" stroke="#0F7C46" stroke-miterlimit="10" stroke-linecap="round" stroke-linejoin="round"/>
<path d="M93.007 124.636C93.007 124.636 97.907 130.936 100.407 133.436C102.907 135.936 122.407 131.236 124.607 129.036C126.807 126.836 127.407 121.836 115.807 119.036C115.827 119.036 105.327 127.796 93.007 124.636Z" fill="#00B763"/>
<path d="M98.187 130.996C105.687 130.696 119.487 129.536 125.707 125.036C125.047 122.936 122.387 120.636 115.807 119.056C115.807 119.056 105.967 127.256 94.167 124.916C93.967 125.096 93.787 125.256 93.627 125.436C94.567 126.616 96.467 128.996 98.187 130.996Z" fill="#07AD5A"/>
<path opacity="0.8" d="M101.087 127.836C101.087 127.836 103.687 129.816 104.667 131.816" stroke="#442753" stroke-width="2" stroke-miterlimit="10" stroke-linecap="round" stroke-linejoin="round"/>
<path opacity="0.8" d="M105.907 127.596C105.907 127.596 108.107 129.296 109.027 131.076" stroke="#442753" stroke-width="2" stroke-miterlimit="10" stroke-linecap="round" stroke-linejoin="round"/>
<path opacity="0.8" d="M109.447 126.336C109.447 126.336 111.907 127.456 113.347 129.816" stroke="#442753" stroke-width="2" stroke-miterlimit="10" stroke-linecap="round" stroke-linejoin="round"/>
<path opacity="0.8" d="M112.487 125.296C112.487 125.296 116.907 126.556 117.807 128.336" stroke="#442753" stroke-width="2" stroke-miterlimit="10" stroke-linecap="round" stroke-linejoin="round"/>
<path opacity="0.8" d="M116.127 123.496C116.127 123.496 120.827 124.576 121.747 126.356" stroke="#442753" stroke-width="2" stroke-miterlimit="10" stroke-linecap="round" stroke-linejoin="round"/>
<path d="M49.6271 104.036C49.6271 104.036 50.8271 109.456 55.1471 109.036C58.3671 108.736 59.1471 101.956 54.3271 99.3764C49.4871 96.8164 49.6271 104.036 49.6271 104.036Z" fill="#F4E834"/>
<path d="M49.6271 104.036C49.6271 104.036 50.8271 109.456 55.1471 109.036C58.3671 108.736 59.1471 101.956 54.3271 99.3764C49.4871 96.8164 49.6271 104.036 49.6271 104.036Z" fill="#F4E834"/>
<path d="M53.387 105.676C54.5136 105.676 55.427 104.763 55.427 103.636C55.427 102.51 54.5136 101.596 53.387 101.596C52.2602 101.596 51.347 102.51 51.347 103.636C51.347 104.763 52.2602 105.676 53.387 105.676Z" fill="#F4E834"/>
<path opacity="0.66" d="M53.3871 105.436C54.3811 105.436 55.1871 104.631 55.1871 103.636C55.1871 102.642 54.3811 101.836 53.3871 101.836C52.3929 101.836 51.5871 102.642 51.5871 103.636C51.5871 104.631 52.3929 105.436 53.3871 105.436Z" fill="#F99338"/>
<path d="M130.467 95.4564C128.207 80.2164 112.947 69.8364 96.407 72.2964C93.307 72.7564 90.387 73.6365 87.707 74.8365C84.567 76.2565 80.847 75.4564 78.587 72.8564C77.587 71.6964 76.647 70.6765 76.147 70.2365C74.727 68.9965 73.087 67.7365 71.207 66.6365C70.267 66.0765 69.267 65.5564 68.207 65.0964C67.147 64.6364 66.027 64.2164 64.867 63.8964C64.567 63.8164 64.287 63.7364 63.987 63.6564C63.687 63.5964 63.387 63.5164 63.087 63.4564C62.787 63.3964 62.467 63.3564 62.167 63.2964C61.867 63.2364 61.547 63.2164 61.227 63.1764C59.967 63.0364 58.687 63.0164 57.387 63.1564C56.087 63.2764 54.787 63.5565 53.527 64.0165L53.287 64.0964L53.167 64.1365L53.107 64.1564C52.947 64.2164 53.047 64.1764 53.007 64.1964L52.987 64.2165L52.587 64.3964L52.187 64.5764L51.987 64.6764C51.927 64.7164 51.827 64.7564 51.767 64.7964C51.447 64.9564 51.147 65.1364 50.847 65.2964C50.547 65.4764 50.287 65.6565 50.007 65.8365C48.927 66.5965 47.927 67.4564 47.067 68.3964C46.207 69.3564 45.427 70.3764 44.767 71.4164C44.107 72.4764 43.527 73.5764 43.047 74.7164L42.967 74.9365L42.887 75.1564L42.727 75.5564C42.687 75.6764 42.627 75.8364 42.567 75.9964L42.427 76.4365C42.327 76.7365 42.267 77.0164 42.167 77.3164C42.087 77.6164 42.027 77.8964 41.947 78.1964C41.427 80.5364 41.347 82.8364 41.547 84.9964C41.767 87.1364 42.247 89.1364 42.867 90.8764C43.487 92.6364 44.247 94.1564 45.007 95.4564C45.767 96.7564 46.527 97.8164 47.187 98.6564C47.507 99.0764 47.827 99.4364 48.087 99.7564C48.227 99.9164 48.347 100.056 48.467 100.176C47.947 101.596 47.267 104.396 49.047 106.156C50.687 107.796 51.207 101.616 54.747 101.056C55.867 100.876 56.147 99.3964 55.007 98.2564C54.047 97.2964 51.767 97.1364 49.747 98.5564C49.727 98.5164 49.687 98.4964 49.667 98.4564C49.427 98.1564 49.147 97.7964 48.867 97.3964C48.287 96.5964 47.607 95.5764 46.947 94.3564C46.287 93.1364 45.647 91.7164 45.147 90.0964C44.627 88.4764 44.267 86.6764 44.147 84.7764C44.027 82.8564 44.187 80.8365 44.707 78.8365C44.787 78.5965 44.847 78.3364 44.927 78.0964C45.007 77.8564 45.087 77.5964 45.167 77.3564L45.307 76.9964C45.347 76.8764 45.387 76.7565 45.447 76.6365L45.607 76.2365L45.687 76.0764L45.767 75.8964C46.207 74.9364 46.747 73.9964 47.347 73.0964C47.947 72.1964 48.647 71.3564 49.387 70.5964C50.147 69.8364 50.967 69.1564 51.847 68.5964C52.067 68.4564 52.287 68.3164 52.507 68.1964C52.727 68.0964 52.927 67.9764 53.147 67.8764C53.207 67.8564 53.247 67.8164 53.307 67.7964L53.507 67.7164L53.927 67.5564L54.327 67.3964L54.367 67.3764L54.467 67.3564L54.647 67.2964C55.627 66.9764 56.647 66.7965 57.667 66.7365C58.687 66.6765 59.727 66.7164 60.747 66.8764C61.007 66.9164 61.247 66.9564 61.507 66.9964C61.767 67.0564 62.007 67.0964 62.267 67.1564C62.507 67.2164 62.767 67.2764 63.007 67.3564C63.247 67.4164 63.487 67.4964 63.727 67.5764C64.687 67.8964 65.627 68.2764 66.507 68.6964C67.387 69.1364 68.227 69.5964 69.027 70.1164C70.627 71.1364 72.007 72.2764 73.227 73.4164C73.607 73.7564 74.267 74.5564 75.027 75.4964C77.227 78.2364 77.347 82.0765 75.307 84.9365C71.347 90.4964 69.447 97.3364 70.487 104.356C72.747 119.596 88.007 129.976 104.547 127.516C121.087 125.056 132.727 110.716 130.467 95.4564Z" fill="#00F0B5"/>
<path d="M76.9471 117.316C76.9471 117.316 77.1271 118.116 80.1671 116.976C83.2071 115.836 85.7471 112.056 85.7471 112.056L78.6271 114.736L74.8871 115.396L76.9471 117.316Z" fill="#12CC9B"/>
<path d="M76.287 71.1765C76.287 71.1765 78.767 76.3165 82.947 77.3165C87.087 78.3165 89.407 74.9765 93.027 73.3165C89.887 73.9365 86.107 75.7165 86.107 75.7165C86.107 75.7165 81.267 76.3565 78.087 72.7765C74.907 69.2165 76.287 71.1765 76.287 71.1765Z" fill="#12CC9B"/>
<g opacity="0.76">
<path opacity="0.76" d="M130.467 95.4564C128.607 82.9964 118.067 73.7964 105.227 72.1964C113.827 75.9964 125.167 78.4964 125.267 94.7764C125.407 114.816 111.167 125.316 95.907 126.336C92.867 126.536 89.767 125.536 86.907 125.196C92.187 127.536 98.267 128.436 104.567 127.516C121.127 125.056 132.727 110.716 130.467 95.4564Z" fill="#12CC9B"/>
</g>
<path d="M92.2271 104.036C95.5409 104.036 98.2271 101.216 98.2271 97.7364C98.2271 94.257 95.5409 91.4364 92.2271 91.4364C88.9135 91.4364 86.2271 94.257 86.2271 97.7364C86.2271 101.216 88.9135 104.036 92.2271 104.036Z" fill="#442753"/>
<path d="M90.6271 98.7364C91.9967 98.7364 93.1071 97.5724 93.1071 96.1364C93.1071 94.7004 91.9967 93.5364 90.6271 93.5364C89.2573 93.5364 88.1471 94.7004 88.1471 96.1364C88.1471 97.5724 89.2573 98.7364 90.6271 98.7364Z" fill="white"/>
<path d="M94.467 101.496C95.2734 101.496 95.9271 100.816 95.9271 99.9764C95.9271 99.137 95.2734 98.4564 94.467 98.4564C93.6606 98.4564 93.007 99.137 93.007 99.9764C93.007 100.816 93.6606 101.496 94.467 101.496Z" fill="white"/>
<path d="M111.487 99.0764C111.387 98.8364 110.827 97.5964 109.507 96.8964C107.227 95.6764 104.547 97.0164 103.187 97.6764C102.227 98.1564 101.067 98.7164 101.007 99.5764C100.947 100.496 102.107 100.916 102.207 101.796C102.107 102.696 100.947 103.116 101.007 104.036C101.067 104.896 102.227 105.476 103.187 105.936C104.527 106.596 107.227 107.936 109.507 106.716C110.827 106.016 111.387 104.776 111.487 104.536C111.647 104.156 111.907 102.976 111.907 101.796C111.907 100.616 111.647 99.4564 111.487 99.0764Z" fill="#00B763"/>
<path opacity="0.8" d="M103.507 100.316C103.507 100.316 107.007 99.4564 109.227 99.4564" stroke="#442753" stroke-miterlimit="10" stroke-linecap="round" stroke-linejoin="round"/>
<path opacity="0.8" d="M103.507 102.136C103.507 102.136 106.927 101.656 108.427 102.356" stroke="#442753" stroke-miterlimit="10" stroke-linecap="round" stroke-linejoin="round"/>
<path d="M80.9871 113.956C79.7471 114.436 78.4871 114.816 77.2471 115.076C74.8071 112.696 73.3671 109.096 73.6271 105.156C73.8071 102.616 74.647 100.316 75.967 98.4564C75.807 99.2164 75.6871 100.016 75.6471 100.816C75.2671 106.016 77.4071 110.816 80.9871 113.956Z" fill="white"/>
<path d="M84.6471 112.196C83.9871 112.576 83.3071 112.936 82.6071 113.256C82.4471 113.336 82.2671 113.416 82.1071 113.476C80.9071 111.796 80.1671 109.656 80.1671 107.316C80.1671 105.256 80.7271 103.356 81.6871 101.796C81.6071 102.416 81.5471 103.056 81.5471 103.716C81.5471 106.976 82.7271 109.956 84.6471 112.196Z" fill="white"/>
<path opacity="0.3" d="M97.407 108.196C97.407 108.196 97.407 112.416 93.507 114.816" stroke="#212121" stroke-width="6" stroke-miterlimit="10" stroke-linecap="round" stroke-linejoin="round"/>
<path opacity="0.3" d="M100.747 109.856C100.747 109.856 102.267 112.896 100.647 116.236" stroke="#212121" stroke-width="6" stroke-miterlimit="10" stroke-linecap="round" stroke-linejoin="round"/>
<path d="M86.9671 110.696C85.6471 111.676 84.1871 112.556 82.6071 113.276C80.2271 114.376 77.7871 115.076 75.3871 115.396" stroke="#0A8E6B" stroke-width="6" stroke-miterlimit="10" stroke-linecap="round" stroke-linejoin="round"/>
<path opacity="0.8" d="M103.507 103.716C103.507 103.716 106.187 103.976 106.747 104.536" stroke="#442753" stroke-miterlimit="10" stroke-linecap="round" stroke-linejoin="round"/>
<path d="M133.407 48.7964C133.407 48.7964 131.887 54.3964 137.647 54.3964C143.407 54.3964 139.807 46.3964 133.407 48.7964Z" fill="#83EAE0"/>
<defs>
<radialGradient id="paint0_radial_14_293" cx="0" cy="0" r="1" gradientUnits="userSpaceOnUse" gradientTransform="translate(55.1705 106.763) scale(14.2774)">
<stop stop-color="#FFFF00"/>
<stop offset="1" stop-color="#FFFF00" stop-opacity="0"/>
</radialGradient>
</defs>
</svg>
